<svg enable-background="new 0 0 576.001 26" version="1.1" viewBox="0 0 576.001 26" xml:space="preserve" xmlns="http://www.w3.org/2000/svg">
<path d="M0,3c17.999,0,17.999,20,35.999,20  C53.997,23,53.997,3,71.996,3c18.001,0,18.001,20,36.002,20S125.999,3,144,3" fill="none" stroke="#000" stroke-miterlimit="10" stroke-width="6"/>
<path d="M144.003,3c17.999,0,17.999,20,35.999,20  C198,23,198,3,215.999,3C234,3,234,23,252.001,23s18.001-20,36.002-20" fill="none" stroke="#000" stroke-miterlimit="10" stroke-width="6"/>
<path d="m288 3c17.999 0 17.999 20 35.999 20 17.998 0 17.998-20 35.997-20 18.001 0 18.001 20 36.002 20s18.001-20 36.002-20" fill="none" stroke="#000" stroke-miterlimit="10" stroke-width="6"/>
<path d="M432.001,3C450,3,450,23,468,23  c17.998,0,17.998-20,35.995-20c18,0,18,20,36.001,20s18.001-20,36.002-20" fill="none" stroke="#000" stroke-miterlimit="10" stroke-width="6"/>
</svg>